# xmcd CD database file
#
# Track frame offsets:
#	150
#	10674
#	22176
#	33641
#	44478
#	59798
#	75632
#	88042
#	104656
#	116000
#	128915
#	139852
#	151480
#	166502
#	180550
#	192526
#	205516
#	217394
#	224961
#	239956
#
# Disc length: 3345 seconds
#
# Revision: 1
# Processed by: cddbd v1.5.1PL0 Copyright (c) Steve Scherf et al.
# Submitted via: CDex 1.51
#
DISCID=3b0d0f14
DTITLE=Luis and Julian - 20 Super Éxitos Originales Vol. 3
DYEAR=2003
DGENRE=Ranchero
TTITLE0=La Huella de Mis Besos
TTITLE1=Mujer Traicionera
TTITLE2=Río Crecido
TTITLE3=Date Gusto
TTITLE4=El Caminante
TTITLE5=Mujeres Ingratas
TTITLE6=Reyna entre Las Flores
TTITLE7=Frontera Chiquita
TTITLE8=Me Voy A Donde Nunca
TTITLE9=El Penal de La Loma
TTITLE10=Bonita Ha de Ser
TTITLE11=Te Vas Ángel Mío
TTITLE12=El Libro
TTITLE13=Ingrato Amor
TTITLE14=El Comandante de Morales
TTITLE15=Bernardo MAta
TTITLE16=Rudy
TTITLE17=El Rosario de Mi Madre
TTITLE18=El Cerillazo
TTITLE19=Pistoleros Famosos
EXTD=YEAR: 2003
EXTT0=
EXTT1=
EXTT2=
EXTT3=
EXTT4=
EXTT5=
EXTT6=
EXTT7=
EXTT8=
EXTT9=
EXTT10=
EXTT11=
EXTT12=
EXTT13=
EXTT14=
EXTT15=
EXTT16=
EXTT17=
EXTT18=
EXTT19=
PLAYORDER=
